<svg width="100" height="100" viewBox="0 0 100 100" fill="none" xmlns="http://www.w3.org/2000/svg">
<circle cx="50" cy="50" r="50" fill="white"/>
<path d="M43.9327 74.9255H52.415V74.2452C50.7921 73.7734 50.3212 72.5692 50.3212 68.2755V55.9192H70.2691V68.2755C70.2691 72.5692 69.7462 73.7734 68.1754 74.2452V74.9255H76.6577V74.2452C75.0337 73.7734 74.5629 72.5692 74.5629 68.2755V44.9244C74.5629 40.6307 75.0337 39.4265 76.6577 38.9546V38.2744H68.1754V38.9546C69.7462 39.4265 70.2691 40.6307 70.2691 44.9244V55.0817H50.3212V44.9244C50.3212 40.6307 50.7921 39.4265 52.415 38.9546V38.2744H43.9327V38.9546C45.5035 39.4265 46.0275 40.6307 46.0275 44.9244V68.2755C46.0275 72.5692 45.5035 73.7734 43.9327 74.2452V74.9255Z" fill="#2B2B2B"/>
<path d="M30.3538 66.7927C37.1079 66.7927 43.3913 60.2999 43.3913 50.2468V30.5083C43.3913 26.2145 43.8621 25.0104 45.485 24.5385V23.8583H37.0558V24.5385C38.6788 25.0104 39.1496 26.2145 39.1496 30.5083V56.6343C39.1496 61.9229 37.6319 63.2322 36.3746 64.0177C33.8621 63.4937 32.6048 63.2322 31.1392 63.2322C29.3069 63.2322 28.26 64.5406 28.26 65.6406C28.26 66.6354 28.9923 66.7927 30.3538 66.7927Z" fill="#2B2B2B"/>
<path d="M34.2333 47.326H68.3448V55.0865H34.2333V47.326Z" fill="#F4F4F4"/>
<path d="M36.4845 53.4539C37.1814 53.4539 37.8293 52.7841 37.8293 51.7476V49.7122C37.8293 49.2685 37.8783 49.1445 38.045 49.0966V49.0258H37.1762V49.0966C37.3429 49.1445 37.3918 49.2685 37.3918 49.7122V52.406C37.3918 52.9518 37.2356 53.0872 37.1054 53.1674C36.847 53.1133 36.7168 53.0872 36.5658 53.0872C36.3773 53.0872 36.2689 53.2216 36.2689 53.3351C36.2689 53.4383 36.3439 53.4539 36.4845 53.4539Z" fill="#2B2B2B"/>
<path d="M39.4438 52.806H40.3188V52.7362C40.1511 52.6872 40.1032 52.5633 40.1032 52.1205V50.8455H42.1605V52.1205C42.1605 52.5633 42.1063 52.6872 41.9449 52.7362V52.806H42.8188V52.7362C42.6522 52.6872 42.6032 52.5633 42.6032 52.1205V49.7122C42.6032 49.2685 42.6522 49.1445 42.8188 49.0966V49.0258H41.9449V49.0966C42.1063 49.1445 42.1605 49.2685 42.1605 49.7122V50.7591H40.1032V49.7122C40.1032 49.2685 40.1511 49.1445 40.3188 49.0966V49.0258H39.4438V49.0966C39.6063 49.1445 39.6605 49.2685 39.6605 49.7122V52.1205C39.6605 52.5633 39.6063 52.6872 39.4438 52.7362V52.806Z" fill="#2B2B2B"/>
<path d="M46.1892 52.806H46.8694V52.7362C46.6319 52.6705 46.5028 52.5195 46.5028 51.9039V49.507L47.8851 51.7799H47.9871L49.359 49.4633V52.1205C49.359 52.5633 49.3049 52.6872 49.1434 52.7362V52.806H50.0184V52.7362C49.8507 52.6872 49.8017 52.5633 49.8017 52.1205V49.9278C49.8017 49.3122 49.9153 49.1612 50.1319 49.0966V49.0258H49.5215L48.1392 51.3539L46.7299 49.0258H46.0757V49.0966C46.2924 49.1612 46.4059 49.3122 46.4059 49.9278V52.1205C46.4059 52.5633 46.3569 52.6872 46.1892 52.7362V52.806Z" fill="#2B2B2B"/>
<path d="M51.5299 52.806H54.1924L54.2362 52.0883L54.1768 52.0768C53.982 52.5789 53.6528 52.7247 53.1341 52.7247H52.432C52.2757 52.7247 52.1893 52.6383 52.1893 52.482V50.8237H52.8799C53.4955 50.8237 53.6528 50.9487 53.7174 51.1914H53.782V50.3758H53.7174C53.6528 50.6185 53.4955 50.7435 52.8799 50.7435H52.1893V49.107H52.983C53.5341 49.107 53.8528 49.2685 54.0414 49.7445L54.1007 49.7278L54.0414 49.0258H51.5299V49.0966C51.6924 49.1445 51.7466 49.2685 51.7466 49.7122V52.1205C51.7466 52.5633 51.6924 52.6872 51.5299 52.7362V52.806Z" fill="#2B2B2B"/>
<path d="M55.5586 52.806H56.9742C58.1617 52.806 58.9284 51.9851 58.9232 50.8455C58.918 49.9705 58.3346 49.0258 56.8492 49.0258H55.5586V49.0966C55.7211 49.1445 55.7753 49.2685 55.7753 49.7122V52.1205C55.7753 52.5633 55.7211 52.6872 55.5586 52.7362V52.806ZM56.218 52.331V49.107H56.5846C57.7888 49.107 58.4315 49.982 58.4315 51.0622C58.4315 52.1903 57.9076 52.7247 56.9628 52.7247H56.569C56.2721 52.7247 56.218 52.5841 56.218 52.331Z" fill="#2B2B2B"/>
<path d="M60.3217 52.806H61.1967V52.7362C61.0289 52.6872 60.981 52.5633 60.981 52.1205V49.7122C60.981 49.2685 61.0289 49.1445 61.1967 49.0966V49.0258H60.3217V49.0966C60.4842 49.1445 60.5383 49.2685 60.5383 49.7122V52.1205C60.5383 52.5633 60.4842 52.6872 60.3217 52.7362V52.806Z" fill="#2B2B2B"/>
<path d="M62.2287 52.8059H62.8391V52.7362C62.6547 52.6976 62.6339 52.5195 62.7735 52.1684L63.0922 51.3799H64.6152L64.9443 52.1737C65.1172 52.5789 65.161 52.6872 64.9933 52.7362V52.8059H65.8308V52.7362C65.7172 52.6872 65.587 52.5789 65.4204 52.1737L64.0912 48.983L63.687 49.1664L63.7349 49.2799C63.7787 49.3664 63.7839 49.4362 63.7464 49.533L62.6818 52.1684C62.5152 52.5789 62.3797 52.6872 62.2287 52.7362V52.8059ZM63.1245 51.2997L63.8433 49.5226L64.5829 51.2997H63.1245Z" fill="#2B2B2B"/>
</svg>
