<svg width="100" height="100" viewBox="0 0 100 100" fill="none" xmlns="http://www.w3.org/2000/svg">
<circle cx="50" cy="50" r="50" fill="#FF0E0E"/>
<g clip-path="url(#clip0_6_258)">
<mask id="mask0_6_258" style="mask-type:alpha" maskUnits="userSpaceOnUse" x="20" y="11" width="60" height="78">
<path d="M20.25 11H79.75V89H20.25V11Z" fill="white"/>
</mask>
<g mask="url(#mask0_6_258)">
<path d="M71.2005 23.9756C65.5823 15.6061 58.0565 11 50.0073 11C41.958 11 34.4323 15.6061 28.8133 23.9756C23.3117 32.1664 20.2689 43.0336 20.2689 54.5817C20.2689 60.3724 21.055 65.5789 22.627 70.0558C24.1124 74.3214 26.3101 77.9703 29.1487 80.8742C34.3448 86.1936 41.6379 89 50.2399 89C58.7988 89 66.019 86.1782 71.0991 80.8579C76.8194 74.8568 79.731 66.0168 79.731 54.5817C79.731 43.0336 76.7028 32.1664 71.2005 23.9756ZM40.2984 77.014C38.2895 77.014 36.6591 75.1973 36.6591 72.9588C36.6591 70.7204 38.2895 68.9036 40.2984 68.9036C42.3073 68.9036 43.9377 70.7204 43.9377 72.9588C43.9377 75.1973 42.3073 77.014 40.2984 77.014ZM50.0073 82.2043C47.9984 82.2043 46.368 80.3875 46.368 78.1491C46.368 75.9106 47.9984 74.0939 50.0073 74.0939C52.0161 74.0939 53.6465 75.9106 53.6465 78.1491C53.6465 80.3875 52.0161 82.2043 50.0073 82.2043ZM59.7161 77.014C57.7073 77.014 56.0768 75.1973 56.0768 72.9588C56.0768 70.7204 57.7073 68.9036 59.7161 68.9036C61.725 68.9036 63.3554 70.7204 63.3554 72.9588C63.3554 75.1973 61.725 77.014 59.7161 77.014ZM64.6066 56.8851C64.6066 59.4803 62.7144 61.5887 60.3855 61.5887H39.629C37.3001 61.5887 35.4079 59.4803 35.4079 56.8851V33.7719C35.4079 31.1768 37.3001 29.0684 39.629 29.0684H60.3709C62.6999 29.0684 64.592 31.1768 64.592 33.7719V56.8851H64.6066Z" fill="#FFFAFA"/>
</g>
</g>
<defs>
<clipPath id="clip0_6_258">
<rect width="70" height="78" fill="white" transform="translate(15 11)"/>
</clipPath>
</defs>
</svg>
